<?xml version="1.0" encoding="UTF-8"?>
<svg id="Layer_1" data-name="Layer 1" xmlns="http://www.w3.org/2000/svg" xmlns:xlink="http://www.w3.org/1999/xlink" version="1.1" viewBox="0 0 720 720">
  <defs>
    <style>
      .cls-1 {
        clip-path: url(#clippath);
      }

      .cls-2 {
        fill: none;
      }

      .cls-2, .cls-3 {
        stroke-width: 0px;
      }

      .cls-3 {
        fill: #000;
      }
    </style>
    <clipPath id="clippath">
      <rect class="cls-2" width="720" height="720"/>
    </clipPath>
  </defs>
  <g class="cls-1">
    <path class="cls-3" d="M422.2,197.6l3.6,6s1.3,2.2,2.8,6.1l-1.1-.2c-12.9-2.6-24.3-9.9-32.2-20.5l-2.7-3.6c-8.1-11-20.3-17.5-32.6-17.5s-24.5,6.6-32.6,17.5l-2.7,3.6c-7.9,10.6-19.3,17.9-32.2,20.5l-1.1.2c1.5-3.9,2.8-6.1,2.8-6.2l3.6-5.9c7.5-3,14-7.9,18.9-14.5l2.7-3.6c10-13.5,25.1-21.5,40.6-21.5s30.6,8.1,40.6,21.5l2.7,3.6c4.8,6.5,11.4,11.5,18.9,14.5ZM179.4,400.6l3.6,2.7c6.6,4.9,11.5,11.4,14.5,18.9l6,3.6s2.2,1.3,6.1,2.8l-.2-1.1c-2.6-12.9-9.9-24.3-20.5-32.2l-3.6-2.7c-11-8.1-17.5-20.3-17.5-32.6s6.6-24.5,17.5-32.6l3.6-2.7c10.6-7.9,17.9-19.3,20.5-32.2l.2-1.1c-3.9,1.5-6.1,2.8-6.1,2.8l-6,3.7c-3,7.5-7.9,14-14.5,18.9l-3.6,2.7c-13.5,10-21.5,25.1-21.5,40.6s8,30.5,21.5,40.5ZM316.7,537l2.7,3.6c10,13.5,25.1,21.5,40.6,21.5s30.6-8.1,40.6-21.5l2.7-3.6c4.9-6.6,11.4-11.6,18.9-14.5l3.7-6s1.3-2.2,2.8-6.1l-1.1.2c-12.9,2.6-24.3,9.9-32.2,20.5l-2.7,3.6c-8.1,11-20.3,17.5-32.6,17.5s-24.5-6.6-32.6-17.5l-2.7-3.6c-7.9-10.6-19.3-17.9-32.2-20.5l-1.1-.2c1.5,3.9,2.8,6,2.8,6.1l3.7,6c7.3,2.9,13.9,7.9,18.7,14.5ZM540.6,319.5l-3.6-2.7c-6.6-4.9-11.6-11.4-14.5-18.9l-5.9-3.6s-2.3-1.3-6.1-2.8l.2,1.1c2.6,12.9,9.9,24.3,20.5,32.2l3.6,2.7c11,8.1,17.5,20.3,17.5,32.6s-6.6,24.5-17.5,32.6l-3.6,2.7c-10.6,7.9-17.9,19.3-20.5,32.2l-.2,1.1c3.9-1.5,6.1-2.8,6.1-2.8l6-3.7c3-7.4,7.9-14,14.5-18.9l3.6-2.7c13.5-10,21.5-25.1,21.5-40.6,0-15.4-8.2-30.5-21.6-40.5ZM318,458.1c5.8,1.2,11,4.5,14.5,9.3l1.6,2.2c6.4,8.6,16,13.7,25.9,13.7s19.5-5.1,25.9-13.7l1.6-2.2c3.6-4.8,8.7-8.1,14.5-9.3l22.6-4.6c.4-.1.9-.2,1.3-.3-1.1-2.8-2.4-5.6-3.8-8.3l-.4-.9-21.7,4.4c-8.2,1.7-15.5,6.3-20.5,13l-1.6,2.2c-4.5,6.1-11.2,9.7-18,9.7s-13.5-3.6-18-9.7l-1.6-2.2c-5-6.8-12.3-11.4-20.5-13l-21.7-4.4-.4.9c-1.4,2.8-2.7,5.6-3.8,8.3.4.1.9.2,1.3.3l22.8,4.6ZM458,402.1c1.2-5.8,4.5-11,9.3-14.5l2.2-1.6c8.6-6.4,13.7-16,13.7-25.9s-5.1-19.5-13.7-25.9l-2.2-1.6c-4.8-3.6-8.1-8.7-9.3-14.5l-4.6-22.6c-.1-.4-.2-.9-.3-1.3-2.8,1.1-5.6,2.4-8.3,3.7l-.9.5,4.4,21.7c1.7,8.2,6.3,15.5,13,20.5l2.2,1.6c6.1,4.5,9.7,11.2,9.7,18s-3.6,13.5-9.7,18l-2.2,1.6c-6.8,5-11.4,12.3-13,20.5l-4.4,21.6.9.5c2.8,1.4,5.5,2.7,8.3,3.8.1-.4.2-.8.3-1.3l4.6-22.8ZM276,421.8l-4.4-21.6c-1.7-8.2-6.3-15.5-13-20.5l-2.2-1.6c-6.1-4.5-9.7-11.2-9.7-18s3.6-13.5,9.7-18l2.2-1.6c6.8-5,11.4-12.3,13-20.5l4.4-21.7-.9-.5c-2.8-1.4-5.5-2.7-8.3-3.8-.1.4-.2.9-.3,1.3l-4.5,22.7c-1.2,5.8-4.5,11-9.3,14.5l-2.2,1.6c-8.6,6.4-13.7,16-13.7,25.9s5.1,19.5,13.7,25.9l2.2,1.6c4.8,3.6,8.1,8.7,9.3,14.5l4.6,22.6c.1.4.2.8.3,1.2,2.8-1.1,5.6-2.4,8.3-3.8l.8-.2ZM402,262c-5.8-1.2-11-4.5-14.5-9.3l-1.6-2.2c-6.4-8.6-16-13.7-25.9-13.7s-19.5,5.1-25.9,13.7l-1.6,2.2c-3.6,4.8-8.7,8.1-14.5,9.3l-22.6,4.6c-.4.1-.8.2-1.3.3,1.1,2.8,2.4,5.5,3.7,8.2l.5.9,21.6-4.4c8.2-1.7,15.5-6.3,20.5-13l1.6-2.2c4.5-6.1,11.2-9.7,18-9.7s13.5,3.6,18,9.7l1.6,2.2c5,6.8,12.3,11.4,20.5,13l21.6,4.4.5-.9c1.4-2.8,2.7-5.5,3.8-8.2-.4-.1-.9-.2-1.3-.3l-22.7-4.6ZM682.9,290.1l-6.6-4.9c-16.4-12.1-27.6-29.8-31.6-49.6l-10.1-50.1c-1.5,1.8-3.1,3.6-4.8,5.3-1.1,1.1-2.3,2.2-3.5,3.3l8.8,43.4c4.5,22.2,17.1,42,35.4,55.6l6.6,4.9c20.7,15.4,33.1,38.6,33.2,61.9,0,23.4-12.4,46.6-33.2,62l-6.6,4.9c-18.3,13.6-30.9,33.3-35.4,55.6l-8.8,43.4c1.2,1.1,2.4,2.2,3.5,3.3,1.7,1.7,3.3,3.5,4.8,5.3l10.1-50c4-19.8,15.2-37.5,31.6-49.6l6.6-4.9c23.2-17.2,37.1-43.4,37.1-69.9s-13.9-52.6-37.1-69.9ZM191,90.2c1.1,1.1,2.2,2.3,3.3,3.5l43.4-8.8c22.2-4.5,42-17.1,55.6-35.4l4.9-6.6c15.3-20.6,38.4-33,61.8-33s46.6,12.4,62,33.2l4.9,6.6c13.6,18.3,33.3,30.9,55.6,35.4l43.4,8.8c1.1-1.2,2.2-2.4,3.3-3.5,1.7-1.7,3.5-3.3,5.3-4.8l-50-10.1c-19.8-4-37.5-15.2-49.6-31.6l-4.9-6.6C412.6,13.9,386.5,0,360,0s-52.6,13.9-69.9,37.1l-4.9,6.6c-12.1,16.4-29.8,27.6-49.6,31.6l-50.1,10.1c2,1.5,3.8,3.1,5.5,4.8ZM85.4,534.4c1.5-1.8,3.1-3.6,4.8-5.4,1.1-1.1,2.3-2.2,3.5-3.3l-8.7-43.3c-4.5-22.2-17.1-42-35.4-55.6l-6.6-4.9c-20.7-15.4-33.1-38.5-33.1-61.9s12.4-46.6,33.2-62l6.6-4.9c18.3-13.6,30.9-33.3,35.4-55.6l8.8-43.4c-1.2-1.1-2.4-2.2-3.5-3.3-1.7-1.7-3.3-3.5-4.8-5.3l-10.1,50c-4,19.8-15.2,37.5-31.6,49.6l-6.6,4.9C13.9,307.4,0,333.5,0,360s13.9,52.6,37.1,69.9l6.6,4.9c16.4,12.1,27.6,29.8,31.6,49.6l10.1,50ZM529,629.8c-1.1-1.1-2.2-2.3-3.3-3.5l-43.4,8.8c-22.2,4.5-42,17.1-55.6,35.4l-4.7,6.5c-15.4,20.7-38.6,33.1-61.9,33.2-23.4,0-46.6-12.4-62-33.2l-4.9-6.6c-13.6-18.3-33.3-30.9-55.6-35.4l-43.4-8.8c-1.1,1.2-2.2,2.4-3.3,3.5-1.7,1.7-3.5,3.3-5.3,4.8l50,10.1c19.8,4,37.5,15.2,49.6,31.6l4.9,6.6c17.2,23.2,43.4,37.1,69.9,37.1s52.6-13.9,69.9-37.1l4.9-6.6c12.1-16.4,29.8-27.6,49.6-31.6l50.1-10.1c-2-1.4-3.8-3-5.5-4.7ZM641.1,360c0-21-11-41.6-29.3-55.2l-5.1-3.8c-12.5-9.3-21.1-22.7-24.1-37.9l-8.2-40.4c-2.3,1.8-4.4,3.7-6.5,5.7-.7.7-1.3,1.4-2,2.2l7,34.5c3.6,17.6,13.5,33.1,27.9,43.9l5.1,3.8c15.9,11.8,25.3,29.4,25.3,47.3s-9.5,35.5-25.3,47.3l-5.1,3.8c-14.5,10.7-24.4,26.3-27.9,43.9l-7,34.5c.7.7,1.3,1.5,2,2.2,2,2,4.2,3.9,6.5,5.7l8.2-40.4c3.1-15.2,11.6-28.6,24.1-37.9l5.1-3.8c18.3-13.8,29.2-34.4,29.3-55.4ZM419,113.4l-3.8-5.1c-13.6-18.4-34.2-29.3-55.2-29.3s-41.6,11-55.2,29.3l-3.8,5.1c-9.3,12.5-22.7,21.1-37.9,24.1l-40.4,8.2c1.8,2.3,3.7,4.4,5.7,6.5.7.7,1.4,1.3,2.2,2l34.5-7c17.6-3.5,33.1-13.5,43.9-27.9l3.8-5.1c11.8-15.9,29.5-25.3,47.3-25.3s35.5,9.5,47.3,25.3l3.8,5.1c10.7,14.5,26.3,24.4,43.9,27.9l34.5,7c.7-.7,1.5-1.3,2.2-2,2-2,3.9-4.2,5.7-6.5l-40.4-8.2c-15.4-3-28.8-11.6-38.1-24.1ZM108.3,415.2l5.1,3.8c12.5,9.3,21.1,22.7,24.1,37.9l8.2,40.4c2.3-1.8,4.4-3.7,6.5-5.7.7-.7,1.3-1.4,2-2.1l-7-34.5c-3.6-17.6-13.5-33.1-27.9-43.9l-5.1-3.8c-15.9-11.8-25.3-29.4-25.3-47.3s9.5-35.5,25.3-47.3l5.1-3.8c14.5-10.7,24.4-26.3,27.9-43.9l7-34.5c-.7-.7-1.3-1.5-2-2.2-2-2-4.2-3.9-6.5-5.7l-8.2,40.4c-3.1,15.2-11.6,28.6-24.1,37.9l-5.1,3.8c-18.3,13.7-29.3,34.4-29.3,55.3s10.9,41.6,29.3,55.2ZM301,606.6l3.8,5.1c13.6,18.3,34.3,29.3,55.2,29.3s41.6-11,55.2-29.3l3.8-5.1c9.3-12.5,22.7-21.1,37.9-24.1l40.4-8.2c-1.8-2.3-3.7-4.4-5.7-6.5-.7-.7-1.4-1.3-2.1-2l-34.5,7c-17.6,3.5-33.1,13.5-43.9,27.9l-3.8,5.1c-11.8,15.9-29.5,25.3-47.3,25.3s-35.5-9.5-47.3-25.3l-3.8-5.1c-10.7-14.5-26.3-24.4-43.9-27.9l-34.5-7c-.7.7-1.4,1.3-2.1,2-2,2-4,4.2-5.7,6.5l40.4,8.2c15.2,3.1,28.6,11.6,37.9,24.1ZM525.7,190.2c4.4.9,8.8,1.8,13.1,2.8,25.8,5.6,50.2,11,72.6-.6,4-2,7.8-4.9,11.4-8.4,15.7-15.7,21.1-37.8,16.2-57.9l-10.2,1.2c3.8,14.3,1.3,30-7.5,42.6h0c-1.8-5.8-6.4-9.4-12.4-11.9s-13.1-3.8-20.2-5.1c-5.6-1-10.6-3.6-14.5-7.4-3.8-3.9-6.4-8.9-7.4-14.5-1.3-7-2.6-14.3-5.1-20.2-2.5-5.9-6.1-10.5-11.9-12.4,8.8-6.1,19.1-9.2,29.4-9.2s8.9.6,13.2,1.7l1.2-10.2c-4.7-1.1-9.6-1.7-14.5-1.7-15.7,0-31.4,6-43.4,18-8.3,8.3-14.1,18.1-17.5,28.6-3.7,12.2-10.3,23.7-19.9,33.4-6.3,6.3-13.4,11.5-20.8,15.6l-36.7,20c32.7-14.9,60.3-9.3,84.9-4.4ZM536.7,202.8c-4.3-.9-8.6-1.9-12.9-2.7-25.9-5.2-52.6-10.6-85,7l-.5.3c1.3,3.6,2.7,8.2,3.7,13.7,2.7,14.8.2,36.8-11,58.7,0,0,2.3,1.6,5.1,4.3s4.3,5.1,4.3,5.1c16.6-8.5,33.4-12,46.9-12s8.2.3,11.8,1c13.9,2.5,22.5,7.8,22.5,7.8l23.7-43.5c4-7.5,9.2-14.5,15.6-20.8,4.8-4.8,10.1-8.9,15.8-12.2-13.1-.9-26.4-3.8-40-6.7ZM190.2,194.3c.9-4.4,1.8-8.8,2.8-13.1,5.6-25.8,11-50.2-.6-72.6-2-4-4.9-7.8-8.4-11.4-15.7-15.7-37.8-21.1-57.9-16.2l1.2,10.2c14.3-3.8,30-1.3,42.6,7.5h0c-5.8,1.8-9.4,6.4-11.9,12.4-2.5,5.9-3.8,13.1-5.1,20.2-1,5.6-3.6,10.6-7.4,14.5-3.9,3.8-8.9,6.4-14.5,7.4-7,1.3-14.3,2.6-20.2,5.1s-10.5,6.1-12.4,11.9c-6.1-8.8-9.2-19.1-9.2-29.4s.6-8.9,1.7-13.2l-10.2-1.2c-1.1,4.7-1.7,9.6-1.7,14.5,0,15.7,6,31.4,18,43.4,8.3,8.3,18.1,14.1,28.6,17.5,12.2,3.7,23.7,10.3,33.4,19.9,6.3,6.3,11.5,13.4,15.6,20.8l20,36.7c-14.9-32.7-9.3-60.3-4.4-84.9ZM202.8,183.3c-.9,4.3-1.9,8.6-2.7,12.9-5.2,25.9-10.6,52.6,7,85l.3.5c3.6-1.3,8.2-2.7,13.7-3.7,14.8-2.7,36.8-.2,58.7,11,0,0,1.6-2.3,4.3-5.1s5.1-4.3,5.1-4.3c-8.5-16.6-12-33.4-12-46.9s.3-8.2,1-11.8c2.5-13.9,7.8-22.5,7.8-22.5l-43.5-23.7c-7.5-4-14.5-9.2-20.8-15.6-4.8-4.8-8.9-10.1-12.2-15.8-.9,13.1-3.7,26.4-6.7,40ZM194.3,529.8c-4.4-.9-8.8-1.8-13.1-2.8-25.8-5.6-50.2-11-72.6.6-4,2-7.8,4.9-11.4,8.4-15.7,15.7-21.1,37.8-16.2,57.9l10.2-1.2c-3.8-14.3-1.3-30,7.5-42.6h0c1.8,5.8,6.4,9.4,12.4,11.9,5.9,2.5,13.1,3.8,20.2,5.1,5.6,1,10.6,3.6,14.5,7.4,3.8,3.9,6.4,8.9,7.4,14.5,1.3,7,2.6,14.3,5.1,20.2s6.1,10.5,11.9,12.4c-8.8,6.1-19.1,9.2-29.4,9.2s-8.9-.6-13.2-1.7l-1.2,10.2c4.7,1.1,9.6,1.7,14.5,1.7,15.7,0,31.4-6,43.4-18,8.3-8.3,14.1-18.1,17.5-28.6,3.7-12.2,10.3-23.7,19.9-33.4,6.3-6.3,13.4-11.5,20.8-15.6l36.7-20c-32.7,14.9-60.3,9.3-84.9,4.4ZM183.3,517.2c4.3.9,8.6,1.9,12.9,2.7,25.9,5.2,52.6,10.6,85-7l.5-.3c-1.3-3.6-2.7-8.2-3.7-13.7-2.7-14.8-.2-36.8,11-58.7,0,0-2.3-1.6-5.1-4.3s-4.3-5.1-4.3-5.1c-16.6,8.5-33.4,12-46.9,12s-8.2-.3-11.8-1c-13.9-2.5-22.5-7.8-22.5-7.8l-23.7,43.5c-4,7.5-9.2,14.5-15.6,20.8-4.8,4.8-10.1,8.9-15.8,12.2,13.1.9,26.4,3.8,40,6.7ZM529.8,525.7c-.9,4.4-1.8,8.8-2.8,13.1-5.6,25.8-11,50.2.6,72.6,2,4,4.9,7.8,8.4,11.4,15.7,15.7,37.8,21.1,57.9,16.2l-1.2-10.2c-14.3,3.8-30,1.3-42.6-7.5h0c5.8-1.8,9.4-6.4,11.9-12.4s3.8-13.1,5.1-20.2c1-5.6,3.6-10.6,7.4-14.5,3.9-3.8,8.9-6.4,14.5-7.4,7-1.3,14.3-2.6,20.2-5.1s10.5-6.1,12.4-11.9c6.1,8.8,9.2,19.1,9.2,29.4s-.6,8.9-1.7,13.2l10.2,1.2c1.1-4.7,1.7-9.6,1.7-14.5,0-15.7-6-31.4-18-43.4s-18.1-14.1-28.6-17.5c-12.2-3.7-23.7-10.3-33.4-19.9-6.3-6.3-11.5-13.4-15.6-20.8l-20-36.7c14.9,32.7,9.3,60.3,4.4,84.9ZM517.2,536.7c.9-4.3,1.9-8.6,2.7-12.9,5.2-25.9,10.6-52.6-7-85l-.3-.5c-3.6,1.3-8.2,2.7-13.7,3.7-14.8,2.7-36.8.2-58.7-11,0,0-1.6,2.3-4.3,5.1s-5.1,4.3-5.1,4.3c8.5,16.6,12,33.4,12,46.9s-.3,8.2-1,11.8c-2.5,13.9-7.8,22.5-7.8,22.5l43.5,23.7c7.5,4,14.5,9.2,20.8,15.6,4.8,4.8,8.9,10.1,12.2,15.8.9-13.1,3.8-26.4,6.7-40Z"/>
  </g>
</svg>