<?xml version="1.0" encoding="UTF-8"?>
<svg id="Layer_1" data-name="Layer 1" xmlns="http://www.w3.org/2000/svg" xmlns:xlink="http://www.w3.org/1999/xlink" version="1.1" viewBox="0 0 720 720">
  <defs>
    <style>
      .cls-1 {
        clip-path: url(#clippath);
      }

      .cls-2 {
        fill: none;
      }

      .cls-2, .cls-3 {
        stroke-width: 0px;
      }

      .cls-3 {
        fill: #000;
      }
    </style>
    <clipPath id="clippath">
      <rect class="cls-2" width="720" height="720"/>
    </clipPath>
  </defs>
  <g class="cls-1">
    <g>
      <path class="cls-3" d="M131.1,384.1c2.8,0,5-2.2,5-5s-2.2-5-5-5-5,2.2-5,5c0,2.8,2.3,5,5,5Z"/>
      <path class="cls-3" d="M131.1,318.2c2.8,0,5-2.2,5-5s-2.2-5-5-5-5,2.2-5,5c0,2.8,2.3,5,5,5Z"/>
      <path class="cls-3" d="M135.8,420.2c2.8,0,5-2.2,5-5s-2.2-5-5-5-5,2.2-5,5,2.2,5,5,5Z"/>
      <path class="cls-3" d="M166.4,379.6c2.8,0,5-2.2,5-5s-2.2-5-5-5-5,2.2-5,5,2.3,5,5,5Z"/>
      <path class="cls-3" d="M161.5,348.6c2.8,0,5-2.2,5-5s-2.2-5-5-5-5,2.2-5,5,2.3,5,5,5Z"/>
      <path class="cls-3" d="M213.4,299.5c2.8,0,5-2.2,5-5s-2.2-5-5-5-5,2.2-5,5,2.2,5,5,5Z"/>
      <path class="cls-3" d="M189.4,351.3c2.8,0,5-2.2,5-5s-2.2-5-5-5-5,2.2-5,5,2.2,5,5,5Z"/>
      <path class="cls-3" d="M163.4,322.7c2.8,0,5-2.2,5-5s-2.2-5-5-5-5,2.2-5,5,2.2,5,5,5Z"/>
      <path class="cls-3" d="M146.3,272.6c2.8,0,5-2.2,5-5s-2.2-5-5-5-5,2.2-5,5,2.3,5,5,5Z"/>
      <path class="cls-3" d="M175.3,416.4c2.8,0,5-2.2,5-5s-2.2-5-5-5-5,2.2-5,5,2.3,5,5,5Z"/>
      <path class="cls-3" d="M178.6,282c2.8,0,5-2.2,5-5s-2.2-5-5-5-5,2.2-5,5,2.2,5,5,5Z"/>
      <path class="cls-3" d="M115.9,344.5c2.8,0,5-2.2,5-5s-2.2-5-5-5-5,2.2-5,5,2.3,5,5,5Z"/>
      <path class="cls-3" d="M202.5,256.3c2.8,0,5-2.2,5-5s-2.2-5-5-5-5,2.2-5,5,2.2,5,5,5Z"/>
      <path class="cls-3" d="M319.8,216.1c59.7,0,108.1-48.4,108.1-108.1S379.5,0,319.8,0s-108.1,48.4-108.1,108.1,48.4,108,108.1,108ZM319.8,206.1c-9.8,0-19.3-1.5-28.3-4.2,15.3-19.4,30.9-49.2,33.1-90.7,14.3-7.3,28.1-11.8,40.9-14.3h0c.2.8,13.3,59.5-25.4,107-6.5,1.5-13.3,2.2-20.3,2.2ZM417.8,108.1c0,41.3-25.7,76.7-61.9,91.1,29.8-46.1,20.8-97.3,19.5-103.7,15.8-2,30-1.1,41.7.9.5,3.7.7,7.7.7,11.7ZM415.2,85.6c-24.5-3.5-58-2.2-95.1,16.7-13.4-8.7-24.2-18.4-32.8-28.3h0c.5-.5,44.7-41.1,105.2-31.5,11,12,18.9,26.8,22.7,43.1ZM319.8,10c22.9,0,44,7.9,60.7,21.1-54.8-2.8-94.6,30.7-99.5,35-9.6-12.7-15.9-25.4-20.1-36.5,16.4-12.3,36.8-19.6,58.9-19.6ZM252.6,36.7c9.2,22.9,27.1,51.3,62,74-.8,16-3.8,30.2-8.1,42.6h-.1c-.7-.2-58-18.2-79.9-75.5,5.2-15.9,14.3-29.9,26.1-41.1ZM222.8,93.8c25,48.9,73.9,66.7,80.1,68.8-6.2,14.7-14.1,26.5-21.6,35.7-35-15-59.6-49.8-59.6-90.2,0-4.9.4-9.6,1.1-14.3Z"/>
      <path class="cls-3" d="M241,313.1c2.8,0,5-2.2,5-5s-2.2-5-5-5-5,2.2-5,5,2.3,5,5,5Z"/>
      <path class="cls-3" d="M232.6,343.7c2.8,0,5-2.2,5-5s-2.2-5-5-5-5,2.2-5,5,2.3,5,5,5Z"/>
      <path class="cls-3" d="M211.8,379.9c2.8,0,5-2.2,5-5s-2.2-5-5-5-5,2.2-5,5,2.2,5,5,5Z"/>
      <path class="cls-3" d="M604.1,385.5c2.8,0,5-2.2,5-5s-2.2-5-5-5-5,2.2-5,5,2.2,5,5,5Z"/>
      <path class="cls-3" d="M487.4,386.3c2.8,0,5-2.2,5-5s-2.2-5-5-5-5,2.2-5,5,2.2,5,5,5Z"/>
      <path class="cls-3" d="M105.4,399c2.8,0,5-2.2,5-5s-2.2-5-5-5-5,2.2-5,5,2.2,5,5,5Z"/>
      <path class="cls-3" d="M479,416.9c2.8,0,5-2.2,5-5s-2.2-5-5-5-5,2.2-5,5,2.2,5,5,5Z"/>
      <path class="cls-3" d="M530.6,378.7c2.8,0,5-2.2,5-5s-2.2-5-5-5-5,2.2-5,5,2.3,5,5,5Z"/>
      <path class="cls-3" d="M506.6,430.5c2.8,0,5-2.2,5-5s-2.2-5-5-5-5,2.2-5,5,2.3,5,5,5Z"/>
      <path class="cls-3" d="M508.2,350.1c2.8,0,5-2.2,5-5s-2.2-5-5-5-5,2.2-5,5,2.2,5,5,5Z"/>
      <path class="cls-3" d="M400.2,503.9c-59.7,0-108.1,48.4-108.1,108.1s48.4,108,108.1,108,108.1-48.4,108.1-108.1-48.4-108-108.1-108ZM400.2,513.9c9.8,0,19.3,1.5,28.3,4.2-15.3,19.4-30.9,49.2-33.1,90.7-14.3,7.3-28.1,11.8-40.9,14.3h0c-.2-.8-13.3-59.5,25.4-107,6.5-1.5,13.3-2.2,20.3-2.2ZM302.2,611.9c0-41.3,25.7-76.7,61.9-91.1-29.8,46.1-20.8,97.3-19.5,103.7-15.8,2-30,1.1-41.7-.9-.5-3.7-.7-7.7-.7-11.7ZM304.8,634.4c24.5,3.5,58,2.2,95.1-16.7,13.4,8.7,24.2,18.4,32.8,28.3h0c-.5.5-44.7,41.1-105.2,31.5-11-12-18.9-26.8-22.7-43.1ZM400.2,710c-22.9,0-44-7.9-60.7-21.1,54.8,2.8,94.6-30.7,99.5-35,9.6,12.7,15.9,25.4,20.1,36.5-16.4,12.3-36.8,19.6-58.9,19.6ZM467.4,683.3c-9.2-22.9-27.1-51.3-62-74,.8-16,3.8-30.2,8.1-42.6h.1c.7.2,58,18.2,79.9,75.5-5.2,15.9-14.3,29.9-26.1,41.1ZM497.2,626.2c-25-48.9-73.9-66.7-80.1-68.8,6.2-14.7,14.1-26.5,21.6-35.7,35,15,59.6,49.8,59.6,90.2,0,4.9-.4,9.6-1.1,14.3Z"/>
      <path class="cls-3" d="M643.8,365.8c2.8,0,5-2.2,5-5s-2.2-5-5-5-5,2.2-5,5,2.2,5,5,5Z"/>
      <path class="cls-3" d="M634.5,396.6c2.8,0,5-2.2,5-5s-2.2-5-5-5-5,2.2-5,5,2.2,5,5,5Z"/>
      <path class="cls-3" d="M614.6,331c2.8,0,5-2.2,5-5s-2.2-5-5-5-5,2.2-5,5,2.3,5,5,5Z"/>
      <path class="cls-3" d="M720,360l-127-127-7.1,7.1,120,120-167.3,167.2-127-127L691.8,120l-91.8-91.8-280.2,280.2L77.7,66.3l-11.4,11.4,108,108L0,360l127,127,7.1-7.1L14.1,359.9l167.3-167.3,127,127L28.2,600l91.8,91.8,280.2-280.2,242.1,242.1,11.3-11.3-108-108,174.4-174.4ZM402.4,395.3l-28.2-28.2,28.2-28.2,28.2,28.2-28.2,28.2ZM127.1,543.5l28.2-28.2,28.2,28.2-28.2,28.2-28.2-28.2ZM148.3,578.8l-28.3,28.2-28.2-28.2,28.2-28.2,28.3,28.2ZM162.4,508.2l28.2-28.2,28.2,28.2-28.2,28.2-28.2-28.2ZM197.7,472.9l28.2-28.2,28.2,28.2-28.2,28.2-28.2-28.2ZM233,437.7l28.2-28.2,28.2,28.2-28.2,28.2-28.2-28.2ZM268.3,402.4l28.2-28.2,28.2,28.2-28.2,28.2-28.2-28.2ZM303.6,367.1l28.2-28.2,28.2,28.2-28.2,28.2-28.2-28.2ZM338.8,331.8l28.2-28.2,28.2,28.2-28.1,28.2-28.3-28.2ZM571.8,155.3l-28.2,28.2-28.2-28.2,28.2-28.2,28.2,28.2ZM550.6,120l28.2-28.2,28.2,28.2-28.2,28.2-28.2-28.2ZM536.5,190.6l-28.2,28.2-28.3-28.2,28.2-28.2,28.3,28.2ZM501.2,225.9l-28.2,28.2-28.2-28.2,28.2-28.2,28.2,28.2ZM465.9,261.2l-28.2,28.2-28.2-28.2,28.2-28.2,28.2,28.2ZM430.6,296.5l-28.2,28.2-28.2-28.2,28.2-28.2,28.2,28.2ZM437.7,360l-28.2-28.2,28.2-28.2,28.2,28.2-28.2,28.2ZM472.9,324.7l-28.2-28.2,28.2-28.2,28.2,28.2-28.2,28.2ZM508.2,289.4l-28.2-28.2,28.2-28.2,28.2,28.2-28.2,28.2ZM543.5,254.1l-28.2-28.2,28.2-28.2,28.2,28.2-28.2,28.2ZM578.8,218.8l-28.2-28.2,28.2-28.2,28.2,28.2-28.2,28.2ZM614.1,183.5l-28.2-28.2,28.2-28.2,28.2,28.2-28.2,28.2ZM677.6,120l-28.2,28.2-28.2-28.2,28.2-28.2,28.2,28.2ZM642.3,84.7l-28.2,28.3-28.2-28.2,28.2-28.2,28.2,28.1ZM42.4,600L600,42.4l7.1,7.1L49.5,607l-7.1-7ZM56.5,614.1l28.2-28.2,28.2,28.2-28.2,28.2-28.2-28.2ZM120,677.6l-28.2-28.2,28.2-28.2,28.2,28.2-28.2,28.2ZM155.3,642.3l-28.2-28.2,28.2-28.2,28.2,28.2-28.2,28.2ZM190.6,607l-28.2-28.2,28.2-28.2,28.2,28.2-28.2,28.2ZM225.9,571.7l-28.2-28.2,28.2-28.2,28.2,28.2-28.2,28.2ZM261.2,536.5l-28.2-28.3,28.2-28.2,28.2,28.2-28.2,28.3ZM296.5,501.2l-28.2-28.2,28.2-28.2,28.2,28.2-28.2,28.2ZM331.8,465.9l-28.2-28.2,28.2-28.2,28.2,28.2-28.2,28.2ZM367.1,430.6l-28.2-28.2,28.2-28.2,28.2,28.2-28.2,28.2Z"/>
      <path class="cls-3" d="M517.5,473.7c2.8,0,5-2.2,5-5s-2.2-5-5-5-5,2.2-5,5,2.3,5,5,5Z"/>
      <path class="cls-3" d="M558.5,381.4c2.8,0,5-2.2,5-5s-2.2-5-5-5-5,2.2-5,5,2.2,5,5,5Z"/>
      <path class="cls-3" d="M588.9,345.9c2.8,0,5-2.2,5-5s-2.2-5-5-5-5,2.2-5,5,2.2,5,5,5Z"/>
      <path class="cls-3" d="M584.2,309.8c2.8,0,5-2.2,5-5s-2.2-5-5-5-5,2.2-5,5,2.3,5,5,5Z"/>
      <path class="cls-3" d="M76.2,364.2c2.8,0,5-2.2,5-5s-2.2-5-5-5-5,2.2-5,5,2.2,5,5,5Z"/>
      <path class="cls-3" d="M85.5,333.4c2.8,0,5-2.2,5-5s-2.2-5-5-5-5,2.2-5,5,2.2,5,5,5Z"/>
      <path class="cls-3" d="M588.9,411.8c2.8,0,5-2.2,5-5s-2.2-5-5-5-5,2.2-5,5,2.2,5,5,5Z"/>
      <path class="cls-3" d="M553.6,350.4c2.8,0,5-2.2,5-5s-2.2-5-5-5-5,2.2-5,5,2.2,5,5,5Z"/>
      <path class="cls-3" d="M573.7,457.4c2.8,0,5-2.2,5-5s-2.2-5-5-5-5,2.2-5,5,2.2,5,5,5Z"/>
      <path class="cls-3" d="M556.6,407.3c2.8,0,5-2.2,5-5s-2.2-5-5-5-5,2.2-5,5,2.2,5,5,5Z"/>
      <path class="cls-3" d="M541.4,448c2.8,0,5-2.2,5-5s-2.2-5-5-5-5,2.2-5,5,2.2,5,5,5Z"/>
      <path class="cls-3" d="M544.7,313.6c2.8,0,5-2.2,5-5s-2.2-5-5-5-5,2.2-5,5,2.2,5,5,5Z"/>
    </g>
  </g>
</svg>