<?xml version="1.0" encoding="UTF-8"?>
<svg id="Layer_1" data-name="Layer 1" xmlns="http://www.w3.org/2000/svg" xmlns:xlink="http://www.w3.org/1999/xlink" version="1.1" viewBox="0 0 720 720">
  <defs>
    <style>
      .cls-1 {
        clip-path: url(#clippath);
      }

      .cls-2 {
        fill: none;
      }

      .cls-2, .cls-3 {
        stroke-width: 0px;
      }

      .cls-3 {
        fill: #000;
      }
    </style>
    <clipPath id="clippath">
      <rect class="cls-2" width="720" height="720"/>
    </clipPath>
  </defs>
  <g class="cls-1">
    <path class="cls-3" d="M130.3,104.5l-16-16h491.3l-16,16h-224.6v113.2c-3.3-.1-6.7-.1-10,0v-113.2h-224.7ZM224.4,506.5l-146.7,146.8-11.4-11.3,82.3-82.3H0V159.6h148.6l-82.3-82.3,11.4-11.3,146.8,146.8-11.3,11.3-48.5-48.5H48.1c-3.2,16.2-16,28.9-32.1,32.1v304c16.1,3.2,28.9,15.9,32.1,32.1h116.5l48.5-48.5,11.3,11.2ZM16,197.4c10.6-2.8,19-11.2,21.8-21.8h-21.8v21.8ZM37.8,543.7c-2.8-10.6-11.2-19-21.8-21.8v21.8h21.8ZM720,559.7h-148.6l82.3,82.3-11.3,11.3-146.8-146.8,11.3-11.3,48.5,48.5h116.5c3.2-16.1,16-28.9,32.1-32.1V207.6c-16.1-3.2-28.9-15.9-32.1-32.1h-116.5l-48.5,48.5-11.3-11.3,146.7-146.7,11.3,11.3-82.3,82.3h148.7v400.1ZM704,521.9c-10.6,2.8-19,11.2-21.8,21.8h21.8v-21.8ZM704,175.6h-21.8c2.8,10.6,11.2,19,21.8,21.8v-21.8ZM442,243.7h43v-16h-72.4c10.5,4.2,20.3,9.6,29.4,16ZM360,491.7c-72.8,0-132.1-59.2-132.1-132.1s59.3-132,132.1-132,132.1,59.2,132.1,132.1-59.3,132-132.1,132ZM476.3,353.2l-22.8,25.7v45.8h9.7c11.9-18.8,18.8-41.1,18.8-65v-1.6l-5.7-4.9ZM392.5,247.6l28,24.8,34.7,18.1v-7.2c-14.5-18-34-31.9-56.4-39.4l-6.3,3.7ZM337.9,251.8l-28.1,24.9,21.9,20.8h56.5l21.9-20.8-28.1-24.9h-44.1ZM264.8,290.5l34.7-18.1,28.3-25.1-5.5-3.7c-22.9,7.4-42.8,21.4-57.6,39.8v7.1h.1ZM266.5,378.9l-22.8-25.7-5.7,4.8v1.6c0,23.9,6.9,46.2,18.8,65h9.7v-45.7h0ZM272.7,370.9l37-17.4,14.4-49.5-22.5-21.3-37.6,19.6-14.1,42.9,22.8,25.7ZM316.3,455.7l38.7-18.2v-44.8l-41.7-29.9-36.9,17.3v46.9l35.2,25.2,4.7,3.5ZM397.3,463.7l-37.3-17.5-37.3,17.6,7.7,14.3c9.5,2.4,19.4,3.6,29.6,3.6s20.1-1.3,29.6-3.6l7.7-14.4ZM443.5,380.2l-36.9-17.3-41.6,29.8v44.8l38.7,18.2,13.7-9.8,26.1-18.8v-46.9h0ZM447.3,370.9l22.8-25.8-14.1-42.9-37.6-19.6-22.5,21.4,14.4,49.5,37,17.4ZM694,268.8v-10h-57.3v202h57.3v-10h-47.3v-182h47.3ZM26,450.5v10h57.3v-202H26v10h47.3v182H26ZM365,614.8v-113.2c-3.3.1-6.7.1-10,0v113.2h-224.7l-16,16h491.3l-16-16h-224.6ZM110,367.6h108.2c-.1-2.6-.2-5.3-.2-8s.1-5.4.2-8h-108.2v16ZM526.7,434.2h-45.9c-3.5,5.6-7.3,11-11.5,16h57.4v-16ZM485,475.6h-43c-9.1,6.4-18.9,11.8-29.4,16h72.4v-16ZM568.3,392.9h-70.3c-1.3,5.5-2.9,10.8-4.9,16h75.1v-16h0ZM278,475.6h-43v16h72.4c-10.5-4.2-20.3-9.6-29.4-16ZM193.3,285h45.8c3.5-5.6,7.3-11,11.5-16h-57.3v16ZM610,351.6h-108.2c.1,2.6.2,5.3.2,8s-.1,5.4-.2,8h108.2v-16ZM498.1,326.3h70.3v-16h-75.1c1.8,5.2,3.5,10.6,4.8,16ZM151.7,326.3h70.3c1.3-5.5,2.9-10.8,4.9-16h-75.1v16h0ZM239.2,434.2h-45.8v16h57.3c-4.2-5-8-10.3-11.5-16ZM307.4,227.7h-72.4v16h43c9.1-6.4,18.9-11.8,29.4-16ZM221.9,392.9h-70.3v16h75.1c-1.8-5.2-3.5-10.5-4.8-16ZM480.8,285h45.9v-16h-57.4c4.2,5.1,8,10.4,11.5,16Z"/>
  </g>
</svg>