<?xml version="1.0" encoding="UTF-8"?>
<svg id="Layer_1" data-name="Layer 1" xmlns="http://www.w3.org/2000/svg" xmlns:xlink="http://www.w3.org/1999/xlink" version="1.1" viewBox="0 0 720 720">
  <defs>
    <style>
      .cls-1 {
        clip-path: url(#clippath);
      }

      .cls-2 {
        fill: none;
      }

      .cls-2, .cls-3 {
        stroke-width: 0px;
      }

      .cls-3 {
        fill: #000;
      }
    </style>
    <clipPath id="clippath">
      <rect class="cls-2" width="720" height="720"/>
    </clipPath>
  </defs>
  <g class="cls-1">
    <path class="cls-3" d="M215.6,160.9l71.7,71.6-14.6,14.6,11.3,11.3,26-26-94.3-94.3-26,26,11.3,11.3,14.6-14.5ZM146,445.9l1.7-9.9c-12.8-2.1-25.3-5.8-37.2-10.8l-3.9,9.2c12.6,5.3,25.9,9.2,39.4,11.5ZM14.9,344.1c5.6,12.5,12.6,24.4,21,35.3l7.9-6.1c-7.9-10.3-14.6-21.5-19.8-33.3l-9.1,4.1ZM10,279.9l-10,.4c.6,13.7,2.7,27.4,6.5,40.6l9.6-2.7c-3.5-12.5-5.6-25.4-6.1-38.3ZM170.9,438.2l-.3,10c13.7.3,27.5-.9,40.9-3.7l-2.1-9.8c-12.6,2.6-25.6,3.8-38.5,3.5ZM19,218.8l-9.5-3.3c-4.5,12.9-7.5,26.4-8.8,40.1l10,1c1.2-12.9,4-25.6,8.3-37.8ZM94.5,120l-7.1-7.1-28.3,28.3,7.1,7.1,28.3-28.3ZM49.8,165.3l-7.6-6.5c-9,10.4-16.7,21.9-23,34.1l8.9,4.6c5.9-11.6,13.2-22.4,21.7-32.2ZM89.8,414.6c-11-6.7-21.3-14.7-30.6-23.8l-7,7.1c9.8,9.7,20.7,18.2,32.4,25.2l5.2-8.5ZM168.4,287.9c0-4.5-3.6-8.1-8.1-8.1s-8.1,3.6-8.1,8.1,3.6,8.1,8.1,8.1,8.1-3.6,8.1-8.1ZM360,115.2c14.9,0,27-12.1,27-27s-12.1-27-27-27-27,12.1-27,27,12.1,27,27,27ZM180.3,498.9l11.9,11.9L488.7,219.6l-18.5-18.5c-12.4,12.4-32.8,39.4-48.9,55.2-5.7,5.6-37.8,37.8-76.7,77L77.6,66.3l-11.3,11.3,267.1,267c-69,69.6-153.1,154.3-153.1,154.3ZM615.7,55.7l-138.4,138.4,18.5,18.5c28.3-28.4,132.5-132.6,132.5-132.6,55.5-53.7,1.3-97.6-36.4-73-29.6,19.3-2.3,46.6,15.6,30.6,10.2-9.1,26,2,8.2,18.1ZM574,274.1l-1.7,9.9c12.8,2.1,25.3,5.8,37.2,10.8l3.9-9.2c-12.6-5.3-25.9-9.2-39.4-11.5ZM705.1,375.9c-5.6-12.5-12.6-24.4-21-35.3l-7.9,6.1c7.9,10.3,14.5,21.5,19.8,33.3l9.1-4.1ZM710,440.1l10-.4c-.6-13.7-2.7-27.4-6.5-40.6l-9.6,2.7c3.5,12.5,5.6,25.4,6.1,38.3ZM549.1,281.8l.3-10c-13.7-.3-27.5.9-40.9,3.7l2.1,9.8c12.6-2.6,25.6-3.8,38.5-3.5ZM701,501.2l9.5,3.3c4.5-12.9,7.5-26.4,8.8-40.1l-10-1c-1.2,12.9-4,25.6-8.3,37.8ZM625.5,600l7.1,7.1,28.3-28.3-7.1-7.1-28.3,28.3ZM670.2,554.7l7.6,6.5c9-10.4,16.7-21.9,23-34.1l-8.9-4.6c-5.9,11.6-13.2,22.4-21.7,32.2ZM630.2,305.4c11,6.7,21.3,14.7,30.6,23.8l7-7.1c-9.8-9.7-20.7-18.2-32.4-25.2l-5.2,8.5ZM504.4,559.1l-71.7-71.6,14.6-14.6-11.3-11.4-26,26,94.3,94.3,26-26-11.3-11.4-14.6,14.7ZM551.6,432.1c0,4.5,3.6,8.1,8.1,8.1s8.1-3.6,8.1-8.1-3.6-8.1-8.1-8.1-8.1,3.6-8.1,8.1ZM360,604.8c-14.9,0-27,12.1-27,27s12.1,27,27,27,27-12.1,27-27-12.1-27-27-27ZM539.7,221.1l-11.9-11.9L231.3,500.4l18.5,18.5c12.4-12.4,32.8-39.4,48.9-55.2,5.7-5.6,37.8-37.8,76.7-77l267.1,267,11.3-11.3-267.1-267c68.9-69.6,153-154.3,153-154.3ZM104.2,664.3l138.4-138.4-18.5-18.5c-28.3,28.4-132.4,132.6-132.4,132.6-55.5,53.7-1.3,97.6,36.4,73,29.6-19.3,2.3-46.6-15.6-30.6-10.2,9.1-26-2-8.3-18.1ZM310.9,336.4l-36.2,36.2c-55,55-144.1,55-199.1,0s-55-144.1,0-199.1l36.2-36.2,11.3,11.3-36.2,36.2c-48.7,48.7-48.7,127.7,0,176.5,48.7,48.8,127.7,48.7,176.5,0l36.2-36.2,11.3,11.3ZM409.1,383.6l36.2-36.2c55-55,144.1-55,199.1,0s55,144.1,0,199.1l-36.2,36.2-11.3-11.3,36.2-36.2c48.7-48.7,48.7-127.7,0-176.5-48.7-48.7-127.7-48.7-176.5,0l-36.2,36.2-11.3-11.3Z"/>
  </g>
</svg>