<?xml version="1.0" encoding="UTF-8"?>
<svg id="Layer_1" data-name="Layer 1" xmlns="http://www.w3.org/2000/svg" xmlns:xlink="http://www.w3.org/1999/xlink" version="1.1" viewBox="0 0 720 720">
  <defs>
    <style>
      .cls-1 {
        clip-path: url(#clippath);
      }

      .cls-2 {
        fill: none;
      }

      .cls-2, .cls-3 {
        stroke-width: 0px;
      }

      .cls-3 {
        fill: #000;
      }
    </style>
    <clipPath id="clippath">
      <rect class="cls-2" width="720" height="720"/>
    </clipPath>
  </defs>
  <g class="cls-1">
    <path class="cls-3" d="M145,412.9c0,40-32.5,72.5-72.5,72.5S0,453,0,412.9s32.5-72.5,72.5-72.5,72.5,32.5,72.5,72.5ZM647.5,379.6c40,0,72.5-32.5,72.5-72.5s-32.5-72.5-72.5-72.5-72.5,32.4-72.5,72.5,32.5,72.5,72.5,72.5ZM240.9,97.7c.7.6,1.4,1.2,2.1,1.8.7.7,1.4,1.3,2.1,2,1.2,1.2,2.4,2.4,3.6,3.6,34.9-15.1,72.9-23.1,111.3-23.1,63.5,0,125.5,21.9,174.8,61.8,1.6,1.3,3.3,2.7,4.9,4.1l7.1-7.1c-1.9-1.6-3.8-3.2-5.7-4.7-51-41.3-115.3-64-181-64-41.2-.1-82,8.8-119.2,25.6ZM617.2,230.4c-10.3-20.4-23.1-39.6-37.9-57.1l-7.1,7.1c14.1,16.6,26.2,34.8,36,54.2,2.8-1.6,5.9-3,9-4.2ZM430.8,270.8l146.7-146.7c8.5-8.5,14.2-20.4,19.7-31.9,1.2-2.5,2.4-4.9,3.6-7.3,13.3-26.7,24.4-39.5,47.4-54.8l18.6-12.3,35.4,35.4-12.3,18.6c-15.2,23-28,34.1-54.8,47.4-2.4,1.2-4.9,2.4-7.3,3.6-11.5,5.5-23.3,11.2-31.9,19.7l-146.7,146.7c.2,1.2.3,2.4.3,3.6,0,12.3-10,22.3-22.3,22.3s-22.3-10-22.3-22.3,10-22.3,22.3-22.3c1.2,0,2.4,0,3.6.3ZM569,155.2l19.8-19.8c9.8-9.7,22.4-15.8,34.6-21.7,2.4-1.2,4.8-2.3,7.2-3.5,25.2-12.5,36.6-22.4,50.9-44l7.8-11.7-23.8-23.8-11.7,7.8c-21.6,14.3-31.4,25.7-44,50.9-1.2,2.4-2.3,4.8-3.5,7.2-5.9,12.2-11.9,24.8-21.6,34.6l-15.7,15.6v8.4h0ZM537.1,187.1l22.8-22.8v-8.5l-22.8,22.8v8.5ZM505.3,218.9l22.8-22.8v-8.5l-22.8,22.8v8.5ZM430.9,281.1c-1.2-.4-2.4-.6-3.7-.6-6.8,0-12.3,5.5-12.3,12.3s5.5,12.3,12.3,12.3,12.3-5.5,12.3-12.3-.2-2.5-.6-3.7l-.9-2.9,58.2-58.2v-8.5l-62.4,62.5-2.9-.9ZM187.3,31.2c20.1-11.1,32.3-14.9,39.1-15.7,1-5.6,1.1-10.9-.4-13.9C225.6.9,225.1,0,223,0s-1.5.1-2.5.3c-13.2,2.6-28.4,10.1-41,17C55.5,88.7-12.9,227.1,2.2,369.5c4-6.5,8.9-12.5,14.6-17.6C8.9,221.4,73.7,96.7,187.3,31.2ZM112.4,155.3c2.4-4,6.5-9.1,13.2-15.1,11.5-10.3,25.8-19.1,40.1-24.8.4-.5.9-.9,1.3-1.4,5.9-6.5,11.7-13.3,17.2-20.3-25.5,4.1-51.7,18.8-69.3,34.6-7.2,6.5-12.6,12.8-16.2,18.9-1,1.8-2,5.1-.7,6.4,2.3,2.2,9.2,2.4,14.4,1.7ZM126.8,281.8c1.7,1.8,3.6,3.2,5.7,4.3-1.8-14.3,11.5-39,36.8-67.2,19.2-21.3,42.8-42,66.6-58.8-.5-6-1.9-11.5-4.1-16.6-26.5,18-53.1,41-74.4,64.6-16.1,17.9-27.6,34.2-34.3,48.5h0c-3.7,9.4-2.4,18.7,3.6,25.2ZM267.7,297l2-2,140.1,140,7.1-7.1-140.1-140.1,2.2-2.2-19-18.9c10-9.9,30.9-31.3,50.1-55.1,37.7-46.7,48.4-77.6,32.9-94.4-.2-.2-.4-.4-.6-.6-15.7-13.6-43.1-10.7-79.6,8.3,2.4,4.8,4.4,9.8,5.9,15,29.4-15.6,52.6-19.9,62.9-11.6,3.3,4,8.8,20.2-33.8,73.1-25.2,31.3-54.4,59.1-54.7,59.4-1.6,1.5-2.5,3.5-2.5,5.7s.8,4.2,2.4,5.8l24.7,24.7ZM217.7,268.1c20.4-23.9,35-51,41.2-76.5,8.2-33.8,1-62.6-20.7-83.1-3.8-3.9-8.1-7.1-12.9-9.5-1.7,2.3-3.4,4.7-5.2,7.2-1.5,2-3,3.9-4.5,6,4.2,1.9,8,4.4,11.3,7.7.1,0,.2.2.2.2,17.6,16.6,23.1,39.4,16.3,67.8-11.9,49.5-58.7,100.1-89.4,109-3.3,1-8,1.9-11.3,1.9s-5.8-.4-8.6-1.2c-5.5-1.5-10.6-4.6-14.6-9-1.3-1.4-2.4-2.8-3.3-4.4,0,8.9,3.2,16.3,9.4,22.1,4,3.9,10.5,7.8,20.2,7.8s7.9-.6,12.6-1.9c18.2-5.3,39.9-21.4,59.3-44.1ZM209.1,76.6c-3,4.5-6.3,9.2-9.9,14-10.3,13.8-21.3,26.8-32.1,37.9-7.1,7.3-14.1,13.8-20.8,19.3-9.4,7.7-17.9,12.9-24.5,15.4-.5.2-1.5.6-2.7.9-3.6,1-8.3,1.5-12.5,1.5s-9.2-.7-12.8-2.9c0,4.2,1.2,7.9,3.9,11.1,0,.2.3.3.5.5,8.3,8.5,25.2,12.9,58.3-14.1,10.5-8.6,21.7-19.5,32.6-31.7,14.5-16.2,28.3-34.4,39.2-51.9,15-23.9,29.1-53.6,18.9-68.8-2.8-4.1-6.6-6.5-11.1-7.6,2.2,7.4.7,18.5-2.4,28.1h0c-2.3,9.4-8.7,24-21.8,44.2-1,1.3-1.9,2.7-2.8,4.1ZM479.1,622.3c-.7-.6-1.4-1.2-2.1-1.8-.7-.7-1.4-1.3-2.1-2-1.2-1.2-2.4-2.4-3.6-3.6-34.9,15.1-72.9,23.1-111.3,23.1-63.5,0-125.5-21.9-174.8-61.8-1.6-1.3-3.3-2.7-4.9-4.1l-7.1,7.1c1.9,1.6,3.8,3.2,5.7,4.7,51,41.3,115.3,64,181,64,41.2,0,82-8.8,119.2-25.6ZM102.8,489.6c10.3,20.4,23.1,39.6,37.9,57.1l7.1-7.1c-14.1-16.6-26.2-34.8-36-54.2-2.8,1.6-5.9,3-9,4.2ZM289.2,449.2l-146.7,146.7c-8.5,8.5-14.2,20.4-19.7,31.9-1.2,2.5-2.4,4.9-3.6,7.3-13.3,26.7-24.4,39.5-47.4,54.8l-18.6,12.3-35.4-35.4,12.3-18.6c15.2-23,28-34.1,54.8-47.4,2.4-1.2,4.9-2.4,7.3-3.6,11.5-5.5,23.3-11.2,31.9-19.7l146.7-146.7c-.2-1.2-.3-2.4-.3-3.6,0-12.3,10-22.3,22.3-22.3s22.3,10,22.3,22.3-10,22.3-22.3,22.3c-1.2,0-2.4,0-3.6-.3ZM151,564.8l-19.8,19.8c-9.8,9.7-22.4,15.8-34.6,21.7-2.4,1.2-4.8,2.3-7.2,3.5-25.2,12.5-36.6,22.4-50.9,44l-7.8,11.7,23.8,23.8,11.7-7.8c21.6-14.3,31.4-25.7,44-50.9,1.2-2.4,2.3-4.8,3.5-7.2,5.9-12.2,11.9-24.8,21.6-34.6l15.6-15.6v-8.4h0ZM182.9,532.9l-22.8,22.8v8.5l22.8-22.8v-8.5ZM214.7,501.1l-22.8,22.8v8.5l22.8-22.8v-8.5ZM289.1,438.9c1.2.4,2.4.6,3.7.6,6.8,0,12.3-5.5,12.3-12.3s-5.5-12.3-12.3-12.3-12.3,5.5-12.3,12.3.2,2.5.6,3.7l.9,2.9-58.2,58.2v8.5l62.4-62.4,2.9.8ZM717.8,350.5c-4,6.5-8.9,12.5-14.6,17.6,7.9,130.4-56.8,255.2-170.5,320.7-20.1,11.1-32.3,14.9-39.1,15.7-1,5.6-1.1,10.9.4,13.9.4.7.9,1.6,3,1.6s1.5,0,2.5-.3c13.2-2.6,28.4-10.1,41-17,124-71.4,192.4-209.8,177.3-352.2ZM607.6,564.7c-2.4,4-6.5,9.1-13.2,15.1-11.5,10.3-25.8,19.1-40.1,24.8-.4.5-.9.9-1.3,1.4-5.9,6.5-11.7,13.3-17.2,20.3,25.5-4.1,51.7-18.8,69.3-34.6,7.2-6.5,12.6-12.8,16.2-18.9,1-1.8,2-5.1.7-6.4-2.3-2.2-9.2-2.4-14.4-1.7ZM593.2,438.2c-1.7-1.8-3.6-3.2-5.7-4.3,1.8,14.3-11.5,39-36.8,67.2-19.2,21.3-42.8,42-66.6,58.8.5,6,1.9,11.5,4.1,16.6,26.5-18,53.1-41,74.4-64.6,16.1-17.9,27.6-34.2,34.3-48.5h0c3.7-9.4,2.4-18.7-3.6-25.2ZM476.9,459.1c1.6-1.5,2.5-3.5,2.5-5.7s-.8-4.2-2.4-5.8l-24.7-24.6-2,2-140.1-140-7.1,7.1,140.1,140.1-2.2,2.2,19,18.9c-10,9.9-30.9,31.3-50.1,55.1-37.7,46.7-48.4,77.6-32.9,94.4.2.2.4.4.6.6,15.7,13.6,43.1,10.7,79.6-8.3-2.4-4.8-4.4-9.8-5.9-15-29.4,15.6-52.6,19.9-62.9,11.6-3.3-4-8.8-20.2,33.8-73.1,25.2-31.3,54.4-59.2,54.7-59.5ZM600.6,431.5c1.3,1.4,2.4,2.8,3.3,4.4,0-8.9-3.2-16.3-9.4-22.1-4-3.9-10.5-7.8-20.2-7.8s-7.9.6-12.6,1.9c-18.3,5.3-39.9,21.4-59.4,44.1-20.4,23.9-35,51-41.2,76.5-8.2,33.8-1,62.6,20.7,83.1,3.8,3.9,8.1,7.1,12.9,9.5,1.7-2.3,3.4-4.7,5.2-7.2,1.5-2,3-3.9,4.5-6-4.2-1.9-8-4.4-11.3-7.7-.1,0-.2-.2-.2-.2-17.6-16.6-23.1-39.4-16.3-67.8,11.9-49.5,58.7-100.1,89.4-109,3.3-1,8-1.9,11.3-1.9s5.8.4,8.6,1.2c5.6,1.6,10.7,4.6,14.7,9ZM510.9,643.4c3-4.5,6.3-9.2,9.9-14,10.3-13.8,21.3-26.8,32.1-37.9,7.1-7.3,14.1-13.8,20.8-19.3,9.4-7.7,17.9-12.9,24.5-15.4.5-.2,1.5-.6,2.7-.9,3.6-1,8.3-1.5,12.5-1.5s9.2.7,12.8,2.9c0-4.2-1.2-7.9-3.9-11.1,0-.2-.3-.3-.5-.5-8.3-8.5-25.2-12.9-58.3,14.1-10.5,8.6-21.7,19.5-32.6,31.7-14.5,16.2-28.3,34.4-39.2,51.9-15,23.9-29.1,53.6-18.9,68.8,2.8,4.1,6.6,6.5,11.1,7.6-2.2-7.4-.7-18.5,2.4-28.1h0c2.3-9.4,8.7-24,21.8-44.2,1-1.3,1.9-2.7,2.8-4.1Z"/>
  </g>
</svg>