<?xml version="1.0" encoding="UTF-8"?>
<svg id="Layer_1" data-name="Layer 1" xmlns="http://www.w3.org/2000/svg" xmlns:xlink="http://www.w3.org/1999/xlink" version="1.1" viewBox="0 0 720 720">
  <defs>
    <style>
      .cls-1 {
        clip-path: url(#clippath);
      }

      .cls-2 {
        fill: none;
      }

      .cls-2, .cls-3 {
        stroke-width: 0px;
      }

      .cls-3 {
        fill: #000;
      }
    </style>
    <clipPath id="clippath">
      <rect class="cls-2" width="720" height="720"/>
    </clipPath>
  </defs>
  <g class="cls-1">
    <path class="cls-3" d="M383.6,253.4l73.2,73.2-9.6,4.5-73.2-73.2,9.6-4.5ZM346.9,230.8l9.6-4.5-45.9-45.9-7.1,7.1,43.4,43.3ZM416.6,198.3l-108.1-108.1-7.1,7.1,105.5,105.5,9.7-4.5ZM516.9,298.6l-73.2-73.2-9.6,4.5,73.2,73.2,9.6-4.5ZM474.3,358.2l58.2,58.2,7.1-7.1-55.6-55.6-9.7,4.5ZM629.8,411.5l-85.8-85.8-9.6,4.5,88.4,88.4,7-7.1ZM577,270.6l-73.2-73.2-9.6,4.5,73.2,73.2,9.6-4.5ZM594.4,302.2l118.5,118.5,7.1-7.1-115.9-115.9-9.7,4.5ZM476.6,170.3L306.4,0l-7.1,7.1,167.7,167.7,9.6-4.5ZM331.1,447.2l-73.2-73.2-4.5,9.6,73.2,73.2,4.5-9.6ZM358.2,474.3l-4.5,9.6,55.6,55.6,7.1-7.1-58.2-58.1ZM197.4,503.7l73.2,73.2,4.5-9.6-73.2-73.2-4.5,9.6ZM225.4,443.7l73.2,73.2,4.5-9.6-73.2-73.2-4.5,9.6ZM325.7,544l85.8,85.8,7.1-7.1-88.3-88.3-4.6,9.6ZM230.8,346.9l-43.3-43.3-7.1,7.1,45.9,45.9,4.5-9.7ZM297.7,604.1l115.9,115.9,7.1-7.1-118.5-118.5-4.5,9.7ZM174.8,467L7.1,299.3l-7.1,7.1,170.3,170.3,4.5-9.7ZM90.2,308.5l108.1,108.1,4.5-9.6-105.5-105.6-7.1,7.1ZM720,268.3l-8.8,6.1c-15.9,10.9-33.4,19.1-52.1,24.3l-8.9,2.5-8.2-4.6c-9.4-5.3-19.7-9.1-30.3-11l-3.5-.6-190.1,88.6,26.2,26.2c52.7,52.7,102.6,109.2,148.3,168l54.3,69.7c2.1,2.7,1.9,6.6-.6,9-1.3,1.3-3.1,2-4.9,2s-2.9-.5-4.2-1.4l-70.6-54.6c-58.3-45.4-114.4-94.9-166.7-147.2l-26.8-26.8-88.6,189.9.6,3.5c2,10.7,5.7,20.9,11,30.3l4.6,8.2-2.5,8.9c-5.2,18.6-13.3,36.1-24.3,52.1l-6.1,8.8-4.8-.6c-12.9-1.5-25.2-7.2-34.7-16.2l-3.4-3.2,2-8.2c7-28.8,19.1-55.8,36.1-80.1l6-8.6,91.8-196.9-85.5-85.5c-.9-.9-1.8-1.9-2.8-2.8l-97,207.9.6,3.5c2,10.7,5.7,20.9,11,30.3l4.6,8.2-2.5,8.9c-5.2,18.6-13.3,36.1-24.3,52.1l-6.1,8.8-4.8-.6c-12.9-1.5-25.2-7.2-34.7-16.2l-3.4-3.2,2-8.2c7-28.8,19.1-55.8,36.1-80.1l6-8.6,100.3-215c-47.2-48.3-92-99.6-133.4-152.9l-54.3-70c-2.1-2.7-1.9-6.6.6-9,2.4-2.4,6.3-2.7,9-.6l70.6,54.9c53,41.2,104,85.9,152.1,132.9l215.2-100.4,8.6-6c24.4-16.9,51.3-29,80.1-36.1l8.2-2,3.2,3.4c8.9,9.4,14.7,21.8,16.2,34.7l.6,4.8-8.8,6.1c-15.9,10.9-33.4,19.1-52.1,24.3l-8.9,2.5-8.2-4.6c-9.4-5.3-19.7-9.1-30.3-11l-3.5-.6-208.1,97c.7.7,1.5,1.5,2.3,2.2l86.1,86.1,197.1-91.9,8.6-6c24.4-16.9,51.3-29,80.1-36.1l8.2-2,3.2,3.4c8.9,9.4,14.7,21.8,16.2,34.7l1.1,4.6ZM283.6,258.4c-4.8-4.8-15.6-13.6-27.3-21.1-11.7-7.6-24.2-13.8-32.5-13.5,0,8.5,6.2,21.1,13.5,32.9,7.4,11.7,15.9,22.6,20.6,27.4l84.1,82.7,24.7-24.7-83.1-83.7ZM436,462.1c4.9,4.7,15.7,13.3,27.4,20.6,11.7,7.4,24.4,13.5,32.9,13.5.3-8.3-6-20.9-13.5-32.5-7.6-11.7-16.4-22.5-21.1-27.3l-83.7-83.1-24.7,24.7,82.7,84.1Z"/>
  </g>
</svg>