<?xml version="1.0" encoding="UTF-8"?>
<svg id="Layer_1" data-name="Layer 1" xmlns="http://www.w3.org/2000/svg" xmlns:xlink="http://www.w3.org/1999/xlink" version="1.1" viewBox="0 0 720 720">
  <defs>
    <style>
      .cls-1 {
        clip-path: url(#clippath);
      }

      .cls-2 {
        fill: none;
      }

      .cls-2, .cls-3 {
        stroke-width: 0px;
      }

      .cls-3 {
        fill: #000;
      }
    </style>
    <clipPath id="clippath">
      <rect class="cls-2" width="720" height="720"/>
    </clipPath>
  </defs>
  <g class="cls-1">
    <path class="cls-3" d="M101.1,132.3l-7.1-7.1C137.7,81.6,164.5,41.6,191.3,0h11.9c-27.1,42.2-55.6,85.7-102.1,132.3ZM151.7,182.8c48.9-48.2,81.3-97.4,112.8-145.2C272.7,25.2,281,12.6,289.6,0h-12.1c-7.3,10.8-14.3,21.5-21.3,32.1-32.6,49.5-63.7,96.6-111.5,143.7l7,7ZM245.7,276.9l7.1,7.1c51.1-49,91.1-107.4,129.9-164.2,27.6-40.4,55.8-81.7,88.2-119.8h-13c-30.4,36.6-57.2,75.8-83.5,114.1-38.5,56.4-78.2,114.4-128.7,162.8ZM195.2,226.3l7.1,7.1c50-48.6,86.1-102.4,121.3-154.6,17.5-26.1,35.4-52.6,55.1-78.7h-12.5c-18.1,24.3-34.6,48.9-50.9,73.2-34.9,51.7-70.8,105.1-120.1,153ZM318.7,501.6c1.5.4,3,1,4.3,1.8,1.6,1,3,2.1,4.3,3.3,29.8-41.2,61.2-80.9,96.3-114.2l-7.1-7.1c-35.7,34.1-67.6,74.4-97.8,116.2ZM468.6,92.2c-6.5,8.9-71.5,95.6-71.5,95.6-4.2,6.9-2,16,5,20.2,3,1.8,7,.9,8.8-2.2l21.7-35.9,35.7,35.7c-29.3,32.3-85.2,97.3-100.6,140h0c89-70.9,166.9-173.6,235.9-264.4h0c-29.2,18.7-76.9,61.8-124.4,112.7l-38-38,25.3-41.8c3-4.9,9.4-6.5,14.3-3.5l11.1-18.6c-7.9-4.8-17-8.4-23.3.2ZM397,216.6c-1.6-1-3-2.1-4.3-3.3-29.8,41.2-61.2,80.9-96.3,114.2l7.1,7.1c35.9-34,67.7-74.3,97.9-116.1-1.6-.5-3.1-1.1-4.4-1.9ZM567.3,0h-14c-23.2,24.2-44.8,51-65.5,78.9,3.4,1.2,6.5,2.9,9.1,4.5,22.2-29.7,45.4-58.2,70.4-83.4ZM568.3,537.2c-48.9,48.2-81.3,97.4-112.8,145.2-8.2,12.4-16.5,25-25.1,37.6h12.1c7.3-10.8,14.3-21.5,21.3-32.1,32.6-49.5,63.7-96.6,111.5-143.7l-7-7ZM474.3,443.1l-7.1-7.1c-51.1,49-91.1,107.4-129.9,164.2-27.6,40.4-55.8,81.7-88.2,119.8h13c30.4-36.6,57.2-75.8,83.5-114.1,38.5-56.4,78.2-114.4,128.7-162.8ZM516.8,720h11.9c26.8-41.6,53.6-81.6,97.2-125.2l-7.1-7.1c-46.4,46.6-74.9,90.1-102,132.3ZM524.8,493.7l-7.1-7.1c-50,48.6-86.1,102.4-121.3,154.6-17.5,26.1-35.4,52.6-55.1,78.7h12.5c18.1-24.3,34.6-48.9,50.9-73.2,34.9-51.7,70.8-105.1,120.1-153ZM103.7,629.1c-5.1,6.8-10.2,13.4-15.2,20-1.9-.3-3.7-.9-5.4-2l-6.7-4.5,4.5-6.6c74.9-109.4,144.2-193,210.6-253.7l-10.9-10.9c-23.9,23.9-99.5,95.6-181.4,135.9l-4.1,2-2.4-3.9C34,407.9,12.5,297.8,4.7,222.7-3.7,141.4,1.8,82.1,1.8,81.5l1-10.6,300.6,300.6c10.7-9.4,21.3-18.2,31.8-26.4l5.5-4.3,12.6,12.2-5.5,4.3c-92.8,72.4-173.2,178.4-244.1,271.8ZM217.2,308L10.6,101.4c-1,23.5-1.5,67.2,4,120.5,7.3,70.6,27,172.3,78.7,264.7,51.7-92.3,105.7-157.7,123.9-178.6ZM273.5,364.3l-49.3-49.3c-18.6,21.5-73,87.7-124.6,180.8,78.9-40,150.9-108.5,173.9-131.5ZM152.7,720h14c23.2-24.2,44.8-51,65.5-78.9-3.4-1.2-6.5-2.9-9.1-4.5-22.2,29.7-45.4,58.2-70.4,83.4ZM251.4,627.8c6.5-8.9,71.5-95.6,71.5-95.6,4.2-6.9,2-16-5-20.2-3-1.8-7-.9-8.8,2.2l-21.8,35.8-35.7-35.7c29.3-32.3,85.2-97.3,100.6-140h0c-88.9,71-166.8,173.7-235.8,264.5h0c29.2-18.7,76.9-61.8,124.4-112.7l38,38-25.3,41.9c-3,4.9-9.4,6.5-14.3,3.5l-11.1,18.5c7.9,4.8,17,8.4,23.3-.2ZM718.2,638.4l-1,10.6-300.6-300.6c-10.7,9.4-21.3,18.2-31.8,26.4l-5.5,4.3-12.6-12.2,5.5-4.3c92.8-72.3,173.2-178.3,244.1-271.8,5.1-6.8,10.2-13.4,15.2-20,1.9.3,3.7.9,5.4,2l6.7,4.5-4.5,6.6c-74.9,109.4-144.2,193-210.6,253.7l10.9,10.9c23.9-23.9,99.5-95.6,181.4-135.9l4.1-2,2.4,3.9c58.6,97.5,80.2,207.5,88,282.7,8.4,81.4,2.9,140.7,2.9,141.2ZM502.8,412l206.5,206.5c1-23.5,1.5-67.2-4-120.5-7.3-70.6-27-172.3-78.7-264.7-51.6,92.4-105.6,157.8-123.8,178.7ZM446.5,355.7l49.3,49.3c18.6-21.5,73-87.7,124.6-180.8-78.9,40-151,108.5-173.9,131.5Z"/>
  </g>
</svg>